<svg width="425" height="98" viewBox="0 0 425 98" fill="none" xmlns="http://www.w3.org/2000/svg">
<path d="M18.384 35.192C18.256 34.8507 20.24 34.68 24.336 34.68C28.4747 34.68 30.544 34.7867 30.544 35L35.152 56.76L38.608 35.32C38.736 34.936 40.848 34.744 44.944 34.744C49.0827 34.744 51.088 34.9147 50.96 35.256L41.936 66.552C41.6373 66.9787 39.0987 67.192 34.32 67.192C29.5413 67.192 26.9813 66.872 26.64 66.232L18.384 35.192ZM57.007 63.224C54.3617 60.28 53.039 56.2053 53.039 51C53.039 45.7947 54.3617 41.72 57.007 38.776C59.695 35.832 63.3003 34.36 67.823 34.36C72.3457 34.36 75.9297 35.832 78.575 38.776C81.2203 41.72 82.543 45.7947 82.543 51C82.543 56.2053 81.2203 60.28 78.575 63.224C75.9297 66.168 72.3457 67.64 67.823 67.64C63.3003 67.64 59.695 66.168 57.007 63.224ZM67.823 45.048C65.4337 45.048 64.239 47.0107 64.239 50.936C64.239 54.8613 65.4337 56.824 67.823 56.824C70.255 56.824 71.471 54.8613 71.471 50.936C71.471 47.0107 70.255 45.048 67.823 45.048ZM87.0675 22.712C87.0675 22.0293 89.0088 21.688 92.8915 21.688C96.5182 21.816 98.3315 22.0933 98.3315 22.52V47.096L104.668 35.384C104.966 34.744 106.78 34.424 110.108 34.424C113.436 34.424 115.569 34.6373 116.507 35.064L108.188 48.632L117.788 66.616C117.873 66.7867 117.062 66.9147 115.356 67C113.692 67.128 112.305 67.192 111.196 67.192C107.1 67.192 104.902 67 104.604 66.616L98.2675 52.408V66.552C98.2675 67.1067 96.3902 67.384 92.6355 67.384C88.9235 67.384 87.0675 67.128 87.0675 66.616V22.712ZM121.161 55.48C124.617 57.5707 127.348 58.616 129.354 58.616C130.634 58.616 131.274 58.168 131.274 57.272C131.274 56.632 130.164 55.8 127.946 54.776C122.612 52.6 119.946 49.0373 119.946 44.088C119.946 40.9307 121.098 38.52 123.402 36.856C125.706 35.192 128.458 34.36 131.658 34.36C134.9 34.36 137.631 34.7013 139.85 35.384C142.111 36.0667 143.242 36.9627 143.242 38.072C143.242 39.0107 142.772 40.248 141.834 41.784C140.938 43.32 140.319 44.152 139.978 44.28C138.143 43.256 136.159 42.744 134.026 42.744C132.874 42.744 132.298 43.1493 132.298 43.96C132.298 44.472 132.511 44.92 132.938 45.304C133.407 45.6453 134.239 46.0933 135.434 46.648C136.628 47.16 137.61 47.6293 138.378 48.056C139.188 48.4827 140.084 49.08 141.066 49.848C143.114 51.4693 144.138 53.5813 144.138 56.184C144.138 59.5973 143.007 62.3707 140.746 64.504C138.484 66.5947 135.071 67.64 130.506 67.64C127.476 67.64 124.724 67.128 122.25 66.104C119.775 65.08 118.538 63.672 118.538 61.88C118.538 60.6853 118.815 59.4267 119.37 58.104C119.967 56.7813 120.564 55.9067 121.161 55.48ZM159.126 67.192C159.126 67.4907 157.099 67.64 153.046 67.64C149.035 67.64 147.03 67.512 147.03 67.256V55.736C147.03 55.352 149.035 55.16 153.046 55.16C157.099 55.16 159.126 55.2667 159.126 55.48V67.192Z" fill="black"/>
<path d="M177.228 66.028C175.716 66.916 173.772 67.36 171.396 67.36C169.02 67.36 167.016 66.556 165.384 64.948C163.752 63.316 162.936 61.072 162.936 58.216C162.936 55.336 163.716 53.02 165.276 51.268C166.86 49.516 168.852 48.64 171.252 48.64C173.652 48.64 175.5 49.252 176.796 50.476C178.116 51.7 178.776 53.188 178.776 54.94C178.776 58.828 176.544 60.772 172.08 60.772H169.596C169.596 61.492 169.788 61.996 170.172 62.284C170.58 62.548 171.168 62.68 171.936 62.68C173.616 62.68 175.212 62.296 176.724 61.528C176.748 61.504 176.856 61.672 177.048 62.032C177.624 63.064 177.912 63.94 177.912 64.66C177.912 65.356 177.684 65.812 177.228 66.028ZM172.728 55.624C172.728 54.616 172.236 54.112 171.252 54.112C170.796 54.112 170.4 54.256 170.064 54.544C169.752 54.808 169.596 55.204 169.596 55.732V56.848H171.54C172.332 56.848 172.728 56.44 172.728 55.624ZM191.928 49.108C192.024 48.916 192.624 48.82 193.728 48.82C197.328 48.82 199.08 48.952 198.984 49.216L194.592 58.324C197.544 63.844 199.02 66.604 199.02 66.604C199.02 66.748 198.3 66.868 196.86 66.964C195.42 67.06 194.4 67.108 193.8 67.108C192.288 67.108 191.484 66.952 191.388 66.64L189.444 60.628L187.212 66.892C187.164 67.06 186.48 67.144 185.16 67.144C183.84 67.144 182.664 67.096 181.632 67C180.6 66.904 180.132 66.784 180.228 66.64L184.296 58.36C181.464 52.432 180.048 49.456 180.048 49.432C180.048 49.288 180.408 49.156 181.128 49.036C181.872 48.916 182.7 48.856 183.612 48.856C184.548 48.856 185.436 48.904 186.276 49C187.116 49.072 187.584 49.18 187.68 49.324L189.588 55.156L191.928 49.108ZM208.907 73.552C208.907 73.72 207.875 73.804 205.811 73.804C203.771 73.804 202.751 73.72 202.751 73.552V55.012H201.527C200.951 55.012 200.555 54.484 200.339 53.428C200.267 53.092 200.231 52.66 200.231 52.132C200.231 51.604 200.399 50.98 200.735 50.26C201.215 49.204 201.983 48.676 203.039 48.676C203.735 48.676 204.371 48.844 204.947 49.18C205.547 49.492 205.955 49.792 206.171 50.08C206.411 50.344 206.531 50.5 206.531 50.548C208.139 49.3 209.879 48.676 211.751 48.676C213.623 48.676 215.231 49.408 216.575 50.872C217.919 52.312 218.591 54.556 218.591 57.604C218.591 60.628 217.919 62.98 216.575 64.66C215.231 66.316 213.527 67.144 211.463 67.144C210.527 67.144 209.675 67.096 208.907 67V73.552ZM210.383 54.976C209.975 54.976 209.579 55.108 209.195 55.372V61.744C209.603 61.792 209.927 61.816 210.167 61.816C210.431 61.816 210.635 61.816 210.779 61.816C211.763 61.72 212.255 60.46 212.255 58.036C212.255 55.996 211.631 54.976 210.383 54.976ZM229.02 66.964C229.02 67.132 227.928 67.216 225.744 67.216C223.56 67.168 222.468 67.072 222.468 66.928V54.976H221.496C221.112 54.976 220.8 54.748 220.56 54.292C220.344 53.812 220.236 53.224 220.236 52.528C220.236 49.936 221.004 48.64 222.54 48.64C223.62 48.64 224.52 48.976 225.24 49.648C225.96 50.296 226.32 51.04 226.32 51.88C226.824 50.896 227.496 50.116 228.336 49.54C229.2 48.94 230.076 48.64 230.964 48.64C232.356 48.64 233.196 49 233.484 49.72C233.556 49.912 233.592 50.2 233.592 50.584C233.592 50.944 233.472 51.604 233.232 52.564C233.016 53.524 232.788 54.22 232.548 54.652C232.308 55.084 232.164 55.3 232.116 55.3C232.068 55.3 231.84 55.216 231.432 55.048C231.048 54.856 230.7 54.76 230.388 54.76C229.476 54.76 229.02 55.48 229.02 56.92V66.964ZM249.017 66.028C247.505 66.916 245.561 67.36 243.185 67.36C240.809 67.36 238.805 66.556 237.173 64.948C235.541 63.316 234.725 61.072 234.725 58.216C234.725 55.336 235.505 53.02 237.065 51.268C238.649 49.516 240.641 48.64 243.041 48.64C245.441 48.64 247.289 49.252 248.585 50.476C249.905 51.7 250.565 53.188 250.565 54.94C250.565 58.828 248.333 60.772 243.869 60.772H241.385C241.385 61.492 241.577 61.996 241.961 62.284C242.369 62.548 242.957 62.68 243.725 62.68C245.405 62.68 247.001 62.296 248.513 61.528C248.537 61.504 248.645 61.672 248.837 62.032C249.413 63.064 249.701 63.94 249.701 64.66C249.701 65.356 249.473 65.812 249.017 66.028ZM244.517 55.624C244.517 54.616 244.025 54.112 243.041 54.112C242.585 54.112 242.189 54.256 241.853 54.544C241.541 54.808 241.385 55.204 241.385 55.732V56.848H243.329C244.121 56.848 244.517 56.44 244.517 55.624ZM253.673 60.52C255.617 61.696 257.153 62.284 258.281 62.284C259.001 62.284 259.361 62.032 259.361 61.528C259.361 61.168 258.737 60.7 257.489 60.124C254.489 58.9 252.989 56.896 252.989 54.112C252.989 52.336 253.637 50.98 254.933 50.044C256.229 49.108 257.777 48.64 259.577 48.64C261.401 48.64 262.937 48.832 264.185 49.216C265.457 49.6 266.093 50.104 266.093 50.728C266.093 51.256 265.829 51.952 265.301 52.816C264.797 53.68 264.449 54.148 264.257 54.22C263.225 53.644 262.109 53.356 260.909 53.356C260.261 53.356 259.937 53.584 259.937 54.04C259.937 54.328 260.057 54.58 260.297 54.796C260.561 54.988 261.029 55.24 261.701 55.552C262.373 55.84 262.925 56.104 263.357 56.344C263.813 56.584 264.317 56.92 264.869 57.352C266.021 58.264 266.597 59.452 266.597 60.916C266.597 62.836 265.961 64.396 264.689 65.596C263.417 66.772 261.497 67.36 258.929 67.36C257.225 67.36 255.677 67.072 254.285 66.496C252.893 65.92 252.197 65.128 252.197 64.12C252.197 63.448 252.353 62.74 252.665 61.996C253.001 61.252 253.337 60.76 253.673 60.52ZM269.88 60.52C271.824 61.696 273.36 62.284 274.488 62.284C275.208 62.284 275.568 62.032 275.568 61.528C275.568 61.168 274.944 60.7 273.696 60.124C270.696 58.9 269.196 56.896 269.196 54.112C269.196 52.336 269.844 50.98 271.14 50.044C272.436 49.108 273.984 48.64 275.784 48.64C277.608 48.64 279.144 48.832 280.392 49.216C281.664 49.6 282.3 50.104 282.3 50.728C282.3 51.256 282.036 51.952 281.508 52.816C281.004 53.68 280.656 54.148 280.464 54.22C279.432 53.644 278.316 53.356 277.116 53.356C276.468 53.356 276.144 53.584 276.144 54.04C276.144 54.328 276.264 54.58 276.504 54.796C276.768 54.988 277.236 55.24 277.908 55.552C278.58 55.84 279.132 56.104 279.564 56.344C280.02 56.584 280.524 56.92 281.076 57.352C282.228 58.264 282.804 59.452 282.804 60.916C282.804 62.836 282.168 64.396 280.896 65.596C279.624 66.772 277.704 67.36 275.136 67.36C273.432 67.36 271.884 67.072 270.492 66.496C269.1 65.92 268.404 65.128 268.404 64.12C268.404 63.448 268.56 62.74 268.872 61.996C269.208 61.252 269.544 60.76 269.88 60.52Z" fill="#4B7CFA"/>
</svg>
